<svg width="241" height="154" viewBox="0 0 241 154" fill="none" xmlns="http://www.w3.org/2000/svg">
<path fill-rule="evenodd" clip-rule="evenodd" d="M166.274 0.000330732C140.476 0.0738353 118.207 13.5857 105.034 33.9292C111.334 38.4216 116.712 44.41 120.616 51.6956C125.301 41.7942 133.028 33.2633 143.381 27.8369C168.7 14.5672 199.97 24.62 213.078 50.2515C217.11 58.1208 218.942 68.4854 218.848 76.787H240.61C240.482 35.4213 207.137 -0.125059 166.274 0.000330732ZM136.331 95.4153C127.015 76.6493 134.072 53.4641 152.053 43.7391C170.038 34.0231 192.244 41.381 201.556 60.1514C204.453 65.9883 205.763 70.6395 205.668 76.7868H185.321C185.282 66.9853 177.281 59.7284 167.896 60.273C153.355 61.1235 151.631 74.4622 151.247 78.5709C150.316 88.5794 148.07 97.9894 144.776 106.616C141.414 103.556 138.508 99.812 136.331 95.4153ZM93.38 75.3689C93.2161 82.869 87.3259 92.0649 76.5546 92.4633C68.0858 92.7821 59.3325 86.4697 59.298 76.8223L39.3421 76.8843C39.1308 83.1447 40.4114 88.1908 43.4126 94.1369C52.7265 112.604 74.9462 119.856 92.9315 110.284C110.917 100.721 117.976 77.9103 108.666 59.4389C106.221 54.5953 102.866 50.553 98.964 47.3431C95.6093 56.0475 93.5999 65.4868 93.38 75.3689ZM121.678 102.915C116.973 112.816 109.204 121.337 98.7921 126.763C73.3064 140.032 41.8565 129.976 28.6603 104.342C24.5051 96.2694 22.6574 85.2957 22.8594 76.7869H0.609375C0.742583 118.159 34.2851 154.08 75.3948 153.959C101.748 153.876 123.113 140.59 136.185 119.772C130.354 115.397 125.365 109.737 121.678 102.915Z" fill="#59089E"/>
</svg>
